PathFileType	4	(X/Y/Z)	path1_01_0-571.trc
DataRate	CameraRate	NumFrames	NumMarkers	Units	OrigDataRate	OrigDataStartFrame	OrigNumFrames
30	30	6	22	m	30	428	571
Frame#	Time	Hip			RHip			RKnee			RAnkle			RBigToe			RSmallToe			RHeel			LHip			LKnee			LAnkle			LBigToe			LSmallToe			LHeel			Neck			Head			Nose			RShoulder			RElbow			RWrist			LShoulder			LElbow			LWrist		
		X1	Y1	Z1	X2	Y2	Z2	X3	Y3	Z3	X4	Y4	Z4	X5	Y5	Z5	X6	Y6	Z6	X7	Y7	Z7	X8	Y8	Z8	X9	Y9	Z9	X10	Y10	Z10	X11	Y11	Z11	X12	Y12	Z12	X13	Y13	Z13	X14	Y14	Z14	X15	Y15	Z15	X16	Y16	Z16	X17	Y17	Z17	X18	Y18	Z18	X19	Y19	Z19	X20	Y20	Z20	X21	Y21	Z21	X22	Y22	Z22
429	14.3	0.4754001528010598	0.8519473527430709	0.30560241470873034	0.48293963619192	0.8292754601873739	0.20164135661101384	0.5524230874226688	0.4849947517815344	0.20349227522106525	0.6922449786860134	0.11204208570860588	0.2410656703171631	0.5257763482520053	0.027267645891856113	0.2380814412440279	0.5654196741372836	0.024703449372667836	0.2006189225418483	0.7490156763879274	0.04823343248952035	0.2629647291153993	0.47400126997128283	0.8278421238528955	0.40485882257344874	0.3094751626340867	0.49639067203597775	0.41102621081185126	0.22994355718029463	0.12381173808693889	0.42107456947371547	0.0493234553287046	0.08013880117297717	0.4462492073602704	0.08882237875986015	0.07567665983293094	0.497622553499559	0.25334535549788006	0.051957672246425966	0.4068337477219805	0.4265309669605356	1.4442882474027732	0.31354909768462313	0.2651036871040381	1.6862218788932102	0.20951303633561347	0.2691958237685445	1.5440588162027842	0.31230066584862964	0.4488545675551335	1.3424925269882764	0.13211456189160775	0.41033175625350016	1.0734657316877443	0.08392951725491025	0.2817382722058013	0.8611226039563231	0.08504233798581026	0.47498430891127746	1.3585924152505007	0.49564621866033076	0.528434205796485	1.084988916870639	0.5274357548877978	0.49156941477757216	0.8388631961405401	0.5537132644683317
430	14.333333333333334	0.43416676170748925	0.846090876539425	0.3100730610452855	0.44231913735926415	0.8226785933492291	0.204425812156337	0.523589012943679	0.4828023273058636	0.207528931954852	0.686090235592578	0.12033176892676631	0.24047001708959748	0.5263875690336691	0.02744591085847393	0.2358444509015764	0.5699986916572836	0.023514320446036907	0.20164388037780373	0.749449240439163	0.05706401178464175	0.2649175786305556	0.43188374405628743	0.8199986053505826	0.4085477625780172	0.26957297213447806	0.4907041593310597	0.41365671055084857	0.16065471921637248	0.11945561436082254	0.4215307726930844	-0.019620667876912738	0.08547771654579836	0.44567014371889596	0.02134744674250959	0.07669731914720204	0.49790044229808944	0.18010138985902777	0.04819448021297896	0.40797701330503533	0.3839061682749502	1.4400770223984425	0.32016285486178636	0.2286412380686728	1.6811474882848305	0.22251176904110537	0.22755812949420778	1.5396925389025415	0.31996782667137275	0.40564946348700154	1.3373137003824769	0.13911579437366092	0.36493924505022585	1.0696395071593616	0.0886098959801653	0.23054444676794722	0.860249296054175	0.0924933616114152	0.4341807347353685	1.3523462184044934	0.5010920954625222	0.4899204491460234	1.078992422937707	0.5308371390736464	0.45867464438568867	0.8329531244599786	0.5577638272845123
431	14.366666666666667	0.39094293230328947	0.8410050345236615	0.3156511484295436	0.39952189396582205	0.8157972951342536	0.20987617353818497	0.487654724482237	0.4794513593506143	0.21341436559803767	0.6752099841937392	0.13345838303137625	0.23970225503125184	0.5270822562232949	0.027510997937865458	0.23280101696537314	0.5747893196133362	0.023180573447868554	0.19982729665633384	0.745814109921486	0.07292729650015971	0.2655616796861638	0.3872084049844125	0.8124528473819304	0.4134448061135339	0.2285646527618094	0.48628488292169086	0.41627350821199244	0.10994361850985779	0.11663740249092627	0.4194817291941819	-0.0690378039680591	0.08338454065218892	0.4429791671092435	-0.027077104163981472	0.07276931023171665	0.49537530958569714	0.1297575565032781	0.0472987309775458	0.4083483578479048	0.34073545101330344	1.4356873942872141	0.328089049865355	0.2013383252490901	1.6750849881297143	0.24757360611884144	0.18603645900814778	1.5356474688505162	0.32935901713266125	0.3620980993605166	1.3333940429565552	0.14659421271226836	0.3209184151115091	1.0659867678802797	0.09460790519966462	0.1844285769620032	0.8588980530316509	0.09986699037830041	0.39272232975215216	1.3467714381137652	0.5068333842629293	0.44914295686848205	1.0731219141645911	0.5344553923811238	0.42255690237739235	0.8278642138770337	0.5626996835917139
432	14.4	0.3460000268516445	0.8372551523654326	0.32236952297846383	0.354651487589105	0.8096022049560146	0.21787533347519622	0.4429711645234343	0.47489596227280056	0.22074855565220006	0.6565781990390357	0.1516748499999027	0.23868287129867877	0.5270027566291848	0.0274504387450459	0.22952237168384204	0.5764132960407061	0.025211132299582262	0.19608976129614938	0.734344085330529	0.09722184039685876	0.264789376012069	0.3407099865668056	0.806164312210836	0.4195142725767147	0.18660360502506235	0.4823017607509964	0.4189617623552924	0.0763209500313432	0.1140894596967993	0.4162965671310963	-0.10168990357360622	0.07415412760738845	0.43980500205816736	-0.058910766790183026	0.06414888805371942	0.49170284800986924	0.09951201044025638	0.04675315962325156	0.40827187640361795	0.2972625184713771	1.432193087613256	0.33709504459044975	0.18155046230627428	1.6695970681042993	0.2791837444214044	0.14492843272530284	1.5325915728187054	0.3406593203979412	0.31842479693345943	1.3314369459773843	0.15437625884439896	0.2786473689766267	1.0631563891075135	0.10192172711889133	0.14367000371239697	0.8574235566727724	0.10697945563415502	0.3509509655731397	1.3425420632791376	0.5128889248314805	0.4065432068939372	1.068401494621694	0.5385981630567704	0.382699954236868	0.8241144236654575	0.5684930660875899
433	14.433333333333334	0.2999495645433221	0.8352776802081625	0.3300738282192304	0.3080593830226164	0.805311818487826	0.2276496335826846	0.3887352132030879	0.46999059125638654	0.22853809803815764	0.6273561610877336	0.17416879133671248	0.23736891278722408	0.5234564876057295	0.02785633720080332	0.2264621330042611	0.5708162486951669	0.030762431843551007	0.19156376875928324	0.7113474069594672	0.1291246790395823	0.2624834209616787	0.2935156551643499	0.8021518421617858	0.426432274818225	0.14529588111996708	0.47857094498628844	0.42166004764513476	0.056229844632433766	0.1112361506387216	0.4131498584248844	-0.12121619098461708	0.06088310498996228	0.43707376400409853	-0.07774576574292051	0.05298502305962368	0.48793964227559733	0.08377939882020023	0.04526614614550839	0.40729519605385545	0.25381020190950143	1.430716553767028	0.34674531836343003	0.16232600746512316	1.666432648660945	0.30957107605247125	0.10436919403170644	1.531055110535815	0.353740389332491	0.2751778801317975	1.3319292469928647	0.16231304201056693	0.23863809073342748	1.0619516505045827	0.11032466403547847	0.10832185057749522	0.8562090485803617	0.11361721403134431	0.3090906293910037	1.340183150016113	0.5193194217883543	0.36252270523687014	1.0656234363846995	0.5435453002084963	0.338826476766327	0.8220305250447649	0.5750419038916691
434	14.466666666666669	0.2535435578136449	0.8354198066392521	0.33826606707537216	0.26040456762553144	0.8041549144292218	0.23804457746308375	0.325308888075863	0.46650640200279814	0.23533300043118077	0.585726695326875	0.19886429781255063	0.23587627369857755	0.5113736293349027	0.02968460453212029	0.22406089932727674	0.5535402167333606	0.040029606913437266	0.1873318572516528	0.6741592750750075	0.16541175267992428	0.2588398606721629	0.2467139663872639	0.8014695975398445	0.4337402604188542	0.10721859236089078	0.4756785752861356	0.42428368979680003	0.045578939509009125	0.10810492453751727	0.4108910699530215	-0.13122180149437507	0.047327165575814345	0.43516062785732873	-0.08745801658821735	0.041978643862059906	0.48468106058948124	0.07664609066200945	0.042829175278055	0.40490961659313673	0.21066626002810648	1.4317667965826508	0.3565851582634484	0.1362786773176975	1.6667507518600588	0.33340384032391945	0.06376745301166578	1.5313265122453006	0.36764395063266764	0.23285821901036943	1.3348932473019421	0.1703445548000129	0.2013567842807848	1.0630655967620783	0.11928273071292766	0.07823596707714148	0.8555820135174093	0.11952665231051525	0.26716046199893845	1.3400600251508197	0.5261089585847804	0.3173392079847671	1.0651210358760959	0.5495235215215915	0.2910200036486736	0.8217824713210592	0.5821116225699373
